<?xml version="1.0" encoding="UTF-8" standalone="no"?>
<!-- Created with Inkscape (http://www.inkscape.org/) -->

<svg
   width="32"
   height="32"
   viewBox="0 0 32 32"
   version="1.1"
   id="svg1"
   xmlns="http://www.w3.org/2000/svg"
   xmlns:svg="http://www.w3.org/2000/svg">
  <defs
     id="defs1" />
  <g
     id="layer1">
    <path
       style="fill:none;fill-rule:evenodd;stroke:#000000;stroke-width:2.50241;stroke-linecap:round;stroke-linejoin:round;stroke-dasharray:none"
       id="path1"
       d="M 0,-0.17002243 C 0.70328437,0.35424326 -0.35972398,1.036645 -0.87136405,0.99888244 -2.257877,0.89654811 -2.724648,-0.79221544 -2.3378097,-1.9127505 -1.6458468,-3.9171249 0.82501798,-4.5004516 2.6140922,-3.676737 5.2396305,-2.4679028 5.9545834,0.87520279 4.6756195,3.3154338 2.9709617,6.5678779 -1.2714419,7.41634 -4.3568203,5.6745019 -8.239454,3.4825764 -9.2220443,-1.6705061 -7.0134292,-5.3982067 -4.3385004,-9.9129516 1.7311089,-11.030001 6.0995484,-8.3523565 11.247603,-5.1968454 12.499325,1.7926972 9.3512389,6.80089 5.7166488,12.583047 -2.1949887,13.969592 -7.8422765,10.350121 -14.259084,6.2374486 -15.780564,-2.5977427 -11.689049,-8.883663 c 4.5900619,-7.051853 14.3498385,-8.708351 21.2740536,-4.144313 7.6871914,5.0669478 9.4787744,15.7520668 4.4418534,23.314322"
       transform="matrix(0.84003573,0,0,0.92008463,14.781699,17.49015)" />
  </g>
</svg>
